<svg width="21" height="25" viewBox="0 0 21 25" fill="none" xmlns="http://www.w3.org/2000/svg">
<path d="M16.9952 2.96129L10.7302 0.872286C10.5251 0.803965 10.3033 0.803965 10.0982 0.872286L3.83319 2.96129C2.83709 3.29217 1.9706 3.92854 1.35683 4.78C0.743059 5.63145 0.413223 6.65467 0.414187 7.70429V12.8213C0.414187 20.3843 9.61419 24.5613 10.0082 24.7353C10.136 24.7921 10.2743 24.8214 10.4142 24.8214C10.5541 24.8214 10.6924 24.7921 10.8202 24.7353C11.2142 24.5613 20.4142 20.3843 20.4142 12.8213V7.70429C20.4151 6.65467 20.0853 5.63145 19.4715 4.78C18.8578 3.92854 17.9913 3.29217 16.9952 2.96129ZM15.1322 10.5383L10.8602 14.8103C10.6854 14.9863 10.4773 15.1258 10.2482 15.2207C10.019 15.3156 9.77324 15.3641 9.52519 15.3633H9.49219C9.23908 15.3594 8.98938 15.3042 8.7582 15.2011C8.52702 15.098 8.31916 14.949 8.14719 14.7633L5.84119 12.3633C5.74132 12.2706 5.66144 12.1585 5.60644 12.0339C5.55144 11.9093 5.52249 11.7747 5.52137 11.6385C5.52024 11.5023 5.54696 11.3672 5.59989 11.2417C5.65282 11.1162 5.73083 11.0028 5.82916 10.9085C5.92748 10.8142 6.04403 10.741 6.17166 10.6933C6.29929 10.6457 6.43531 10.6246 6.57137 10.6315C6.70744 10.6383 6.84067 10.6728 6.9629 10.733C7.08513 10.7931 7.19378 10.8776 7.28219 10.9813L9.52619 13.3213L13.7142 9.12129C13.9028 8.93913 14.1554 8.83834 14.4176 8.84061C14.6798 8.84289 14.9306 8.94806 15.116 9.13347C15.3014 9.31888 15.4066 9.56969 15.4089 9.83189C15.4111 10.0941 15.3103 10.3467 15.1282 10.5353L15.1322 10.5383Z" fill="white"/>
</svg>
